<?xml version="1.0" encoding="UTF-8"?>
<svg xmlns="http://www.w3.org/2000/svg" viewBox="-231.378293 0 969.449194 969.449194" width="512" height="512">
  <style>
    path { fill: #0a0a0a; }
    @media (prefers-color-scheme: dark) {
      path { fill: #fafafa; }
    }
  </style>
  <g transform="translate(-259.253943,990.701499) scale(0.100000,-0.100000)" fill="#0a0a0a" stroke="none">
<path d="M5094 9878 c-29 -31 -45 -55 -92 -138 -11 -19 -54 -91 -97 -160 -43
-69 -89 -143 -102 -165 -14 -22 -51 -83 -83 -135 -32 -52 -82 -135 -111 -185
-29 -49 -70 -117 -91 -150 -20 -33 -62 -100 -93 -150 -30 -49 -75 -121 -100
-160 -75 -119 -115 -192 -115 -213 0 -10 11 -36 25 -56 14 -20 25 -40 25 -43
0 -4 11 -23 23 -42 13 -20 40 -61 59 -91 20 -30 62 -95 94 -145 33 -49 64 -99
70 -110 95 -171 211 -360 274 -445 10 -14 40 -61 66 -105 26 -44 70 -116 98
-160 29 -44 72 -114 96 -155 52 -89 68 -110 87 -110 19 0 79 88 204 300 60
102 132 221 159 265 60 94 107 170 135 217 11 18 31 51 45 74 14 22 52 85 84
140 33 54 65 106 72 114 7 8 27 42 45 75 18 33 59 100 91 150 62 96 77 142 59
182 -6 14 -45 76 -85 137 -40 61 -90 140 -110 176 -21 36 -41 72 -46 80 -5 8
-30 51 -56 95 -26 44 -69 112 -95 150 -26 39 -76 120 -111 180 -36 61 -95 160
-133 220 -37 61 -78 128 -90 150 -63 115 -144 236 -160 242 -6 2 -25 -11 -41
-29z"/>
<path d="M7545 7776 c-44 -13 -109 -32 -145 -44 -36 -11 -121 -37 -190 -57
-282 -83 -328 -97 -400 -120 -82 -26 -257 -79 -415 -125 -55 -16 -165 -48
-245 -71 -260 -75 -238 -51 -550 -579 -90 -151 -191 -318 -225 -370 -33 -52
-78 -129 -100 -170 -48 -94 -116 -200 -139 -220 -21 -17 -16 -23 -91 100 -27
45 -65 104 -82 132 -18 27 -33 52 -33 55 0 2 -16 28 -35 57 -19 29 -35 56 -35
60 0 5 -10 22 -22 39 -12 17 -70 110 -128 206 -106 176 -209 342 -282 456 -21
33 -47 77 -58 98 -12 21 -35 47 -53 57 -37 23 -349 124 -557 180 -118 32 -303
88 -440 133 -74 24 -198 61 -275 82 -77 20 -178 50 -225 65 -47 16 -115 32
-152 36 -102 10 -103 22 11 -306 39 -113 146 -430 237 -705 91 -275 178 -536
194 -580 15 -44 44 -132 64 -195 20 -63 48 -144 61 -180 13 -36 81 -240 151
-455 179 -550 430 -1315 463 -1410 24 -68 556 -1665 584 -1750 5 -16 20 -61
34 -100 13 -38 30 -90 38 -115 7 -25 48 -144 90 -265 256 -733 326 -938 345
-1000 10 -33 39 -121 64 -195 26 -74 58 -169 71 -210 33 -98 41 -111 59 -87 7
9 21 43 30 75 10 31 28 86 40 122 13 36 44 128 69 205 42 128 84 250 258 755
34 96 71 209 84 250 26 86 56 176 90 270 52 146 99 278 121 335 12 33 26 74
29 90 6 25 72 221 115 340 6 17 33 98 61 180 115 345 222 662 234 695 7 19 32
94 55 165 23 72 52 159 65 195 13 36 69 207 125 380 102 315 138 425 190 575
15 44 99 296 185 560 87 264 171 518 187 565 17 47 43 121 58 165 15 44 45
134 66 200 20 66 49 156 64 200 15 44 37 109 50 145 12 36 69 209 127 385 58
176 130 390 160 475 30 85 57 176 60 203 7 56 7 56 -112 23z"/>
  </g>
</svg>
